<mxfile host="app.diagrams.net" modified="2024-05-20T02:26:51.529Z" agent="Mozilla/5.0 (Windows NT 10.0; Win64; x64) AppleWebKit/537.36 (KHTML, like Gecko) Chrome/124.0.0.0 Safari/537.36" etag="JHrbHJEcye2RaT5LHR5K" version="24.4.4" type="device">
  <diagram name="Página-1" id="nuCk-OXFzzDmU9zcpF9O">
    <mxGraphModel dx="1505" dy="1523" grid="1" gridSize="10" guides="1" tooltips="1" connect="1" arrows="1" fold="1" page="1" pageScale="1" pageWidth="827" pageHeight="1169" math="0" shadow="0">
      <root>
        <mxCell id="0" />
        <mxCell id="1" parent="0" />
        <mxCell id="KaHYt5kifrU_fSITi9a_-1" value="Equipos(nombre,ciudad,estadio,dueño)&lt;div&gt;&lt;br&gt;&lt;/div&gt;" style="text;html=1;align=center;verticalAlign=middle;whiteSpace=wrap;rounded=0;" parent="1" vertex="1">
          <mxGeometry x="383" y="400" width="60" height="20" as="geometry" />
        </mxCell>
        <mxCell id="KaHYt5kifrU_fSITi9a_-2" value="Clasificaciones(ligaNombre,ligaFecha,equipo,puesto,partidosGanados,partidosEmpatados,partidosPerdidos,puntos)" style="text;html=1;align=center;verticalAlign=middle;whiteSpace=wrap;rounded=0;" parent="1" vertex="1">
          <mxGeometry x="384" y="780" width="60" height="30" as="geometry" />
        </mxCell>
        <mxCell id="KaHYt5kifrU_fSITi9a_-3" value="Ligas(nombre,fechaInicio,fechaFin,ganador)" style="text;html=1;align=center;verticalAlign=middle;whiteSpace=wrap;rounded=0;" parent="1" vertex="1">
          <mxGeometry x="383" y="610" width="60" height="30" as="geometry" />
        </mxCell>
        <mxCell id="KaHYt5kifrU_fSITi9a_-5" value="Partidos(codigo,ligaNombre,ligaFecha,equipoLocal&lt;font color=&quot;#ff0303&quot;&gt;!&lt;/font&gt;,equipoVisitante&lt;font color=&quot;#ff0000&quot;&gt;!&lt;/font&gt;,golesLocal,golesVisitante)" style="text;html=1;align=center;verticalAlign=middle;whiteSpace=wrap;rounded=0;" parent="1" vertex="1">
          <mxGeometry x="390" y="520" width="60" height="30" as="geometry" />
        </mxCell>
        <mxCell id="KaHYt5kifrU_fSITi9a_-6" value="Estadisticas(partidoCodigo,jugadorNit,jugadorTid,equipo,asistencias,tarjetasAmarillas,tarjetasRojas,posecionLocal,posecionVisitante)" style="text;html=1;align=center;verticalAlign=middle;whiteSpace=wrap;rounded=0;" parent="1" vertex="1">
          <mxGeometry x="383" y="930" width="60" height="30" as="geometry" />
        </mxCell>
        <mxCell id="KaHYt5kifrU_fSITi9a_-7" value="Jugadores(nombre,nit,&lt;span style=&quot;background-color: initial;&quot;&gt;tid,nacionalidad,&lt;/span&gt;edad,&lt;span style=&quot;background-color: initial;&quot;&gt;altura,posicion)&lt;/span&gt;" style="text;html=1;align=center;verticalAlign=middle;whiteSpace=wrap;rounded=0;" parent="1" vertex="1">
          <mxGeometry x="383" y="210" width="60" height="30" as="geometry" />
        </mxCell>
        <mxCell id="KaHYt5kifrU_fSITi9a_-9" value="CuerposTecnicos(nombre,Tid,Nid,nacionalidad,cargo,equipo)" style="text;html=1;align=center;verticalAlign=middle;whiteSpace=wrap;rounded=0;" parent="1" vertex="1">
          <mxGeometry x="383" y="460" width="60" height="30" as="geometry" />
        </mxCell>
        <mxCell id="KaHYt5kifrU_fSITi9a_-10" value="Sesiones(nombre,correo,fechaNacimiento)" style="text;html=1;align=center;verticalAlign=middle;whiteSpace=wrap;rounded=0;" parent="1" vertex="1">
          <mxGeometry x="384" y="-350" width="60" height="30" as="geometry" />
        </mxCell>
        <mxCell id="KaHYt5kifrU_fSITi9a_-11" value="Pagos(sesion,fechaInicio,fechaFin)" style="text;html=1;align=center;verticalAlign=middle;whiteSpace=wrap;rounded=0;" parent="1" vertex="1">
          <mxGeometry x="384" y="-60" width="60" height="30" as="geometry" />
        </mxCell>
        <mxCell id="KaHYt5kifrU_fSITi9a_-12" value="Gratis(sesion)" style="text;html=1;align=center;verticalAlign=middle;whiteSpace=wrap;rounded=0;" parent="1" vertex="1">
          <mxGeometry x="383" y="-270" width="60" height="30" as="geometry" />
        </mxCell>
        <mxCell id="KaHYt5kifrU_fSITi9a_-13" value="Publicidades(nombre,URL)" style="text;html=1;align=center;verticalAlign=middle;whiteSpace=wrap;rounded=0;" parent="1" vertex="1">
          <mxGeometry x="384" y="-190" width="60" height="30" as="geometry" />
        </mxCell>
        <mxCell id="KaHYt5kifrU_fSITi9a_-24" value="" style="endArrow=none;html=1;rounded=0;fillColor=#f8cecc;strokeColor=#b85450;entryX=0.934;entryY=0.667;entryDx=0;entryDy=0;entryPerimeter=0;" parent="1" target="URsFByzpOWh1pcknukhG-22" edge="1">
          <mxGeometry width="50" height="50" relative="1" as="geometry">
            <mxPoint x="400" y="100" as="sourcePoint" />
            <mxPoint x="440" y="100" as="targetPoint" />
          </mxGeometry>
        </mxCell>
        <mxCell id="KaHYt5kifrU_fSITi9a_-25" value="" style="endArrow=none;html=1;rounded=0;fillColor=#d5e8d4;strokeColor=#82b366;" parent="1" edge="1">
          <mxGeometry width="50" height="50" relative="1" as="geometry">
            <mxPoint x="400" y="90" as="sourcePoint" />
            <mxPoint x="420" y="90" as="targetPoint" />
            <Array as="points">
              <mxPoint x="413" y="90" />
            </Array>
          </mxGeometry>
        </mxCell>
        <mxCell id="KaHYt5kifrU_fSITi9a_-26" value="" style="endArrow=none;html=1;rounded=0;fillColor=#f8cecc;strokeColor=#b85450;entryX=0.91;entryY=0.667;entryDx=0;entryDy=0;entryPerimeter=0;" parent="1" target="URsFByzpOWh1pcknukhG-29" edge="1">
          <mxGeometry width="50" height="50" relative="1" as="geometry">
            <mxPoint x="440" y="170" as="sourcePoint" />
            <mxPoint x="490" y="170" as="targetPoint" />
          </mxGeometry>
        </mxCell>
        <mxCell id="KaHYt5kifrU_fSITi9a_-27" value="" style="endArrow=none;html=1;rounded=0;fillColor=#d5e8d4;strokeColor=#82b366;" parent="1" edge="1">
          <mxGeometry width="50" height="50" relative="1" as="geometry">
            <mxPoint x="440" y="160" as="sourcePoint" />
            <mxPoint x="460" y="160" as="targetPoint" />
          </mxGeometry>
        </mxCell>
        <mxCell id="KaHYt5kifrU_fSITi9a_-28" value="" style="endArrow=none;html=1;rounded=0;fillColor=#d5e8d4;strokeColor=#82b366;entryX=0.91;entryY=0.333;entryDx=0;entryDy=0;entryPerimeter=0;" parent="1" target="URsFByzpOWh1pcknukhG-29" edge="1">
          <mxGeometry width="50" height="50" relative="1" as="geometry">
            <mxPoint x="470" y="160" as="sourcePoint" />
            <mxPoint x="510" y="160" as="targetPoint" />
          </mxGeometry>
        </mxCell>
        <mxCell id="KaHYt5kifrU_fSITi9a_-29" value="" style="endArrow=none;html=1;rounded=0;fillColor=#f8cecc;strokeColor=#b85450;exitX=0.117;exitY=0.667;exitDx=0;exitDy=0;exitPerimeter=0;" parent="1" source="KaHYt5kifrU_fSITi9a_-9" edge="1">
          <mxGeometry width="50" height="50" relative="1" as="geometry">
            <mxPoint x="398" y="480" as="sourcePoint" />
            <mxPoint x="428" y="480" as="targetPoint" />
          </mxGeometry>
        </mxCell>
        <mxCell id="KaHYt5kifrU_fSITi9a_-30" value="" style="endArrow=none;html=1;rounded=0;fillColor=#dae8fc;strokeColor=#6c8ebf;" parent="1" edge="1">
          <mxGeometry width="50" height="50" relative="1" as="geometry">
            <mxPoint x="440" y="409.76" as="sourcePoint" />
            <mxPoint x="470" y="410" as="targetPoint" />
          </mxGeometry>
        </mxCell>
        <mxCell id="KaHYt5kifrU_fSITi9a_-32" value="" style="endArrow=none;html=1;rounded=0;fillColor=#f8cecc;strokeColor=#b85450;entryX=0.041;entryY=0.695;entryDx=0;entryDy=0;entryPerimeter=0;" parent="1" target="KaHYt5kifrU_fSITi9a_-7" edge="1">
          <mxGeometry width="50" height="50" relative="1" as="geometry">
            <mxPoint x="360" y="230" as="sourcePoint" />
            <mxPoint x="380" y="230" as="targetPoint" />
          </mxGeometry>
        </mxCell>
        <mxCell id="KaHYt5kifrU_fSITi9a_-33" value="" style="endArrow=none;html=1;rounded=0;fillColor=#d5e8d4;strokeColor=#82b366;" parent="1" edge="1">
          <mxGeometry width="50" height="50" relative="1" as="geometry">
            <mxPoint x="430" y="340" as="sourcePoint" />
            <mxPoint x="470" y="340" as="targetPoint" />
          </mxGeometry>
        </mxCell>
        <mxCell id="KaHYt5kifrU_fSITi9a_-35" value="" style="endArrow=none;html=1;rounded=0;fillColor=#f8cecc;strokeColor=#b85450;entryX=0.9;entryY=0.667;entryDx=0;entryDy=0;entryPerimeter=0;exitX=0.229;exitY=0.667;exitDx=0;exitDy=0;exitPerimeter=0;" parent="1" source="URsFByzpOWh1pcknukhG-34" edge="1">
          <mxGeometry width="50" height="50" relative="1" as="geometry">
            <mxPoint x="320" y="370" as="sourcePoint" />
            <mxPoint x="625" y="350.01" as="targetPoint" />
          </mxGeometry>
        </mxCell>
        <mxCell id="KaHYt5kifrU_fSITi9a_-36" value="" style="endArrow=none;html=1;rounded=0;fillColor=#d5e8d4;strokeColor=#82b366;entryX=0.525;entryY=0.333;entryDx=0;entryDy=0;entryPerimeter=0;" parent="1" target="URsFByzpOWh1pcknukhG-34" edge="1">
          <mxGeometry width="50" height="50" relative="1" as="geometry">
            <mxPoint x="364" y="340" as="sourcePoint" />
            <mxPoint x="384" y="340" as="targetPoint" />
            <Array as="points">
              <mxPoint x="364" y="340" />
            </Array>
          </mxGeometry>
        </mxCell>
        <mxCell id="KaHYt5kifrU_fSITi9a_-38" value="" style="endArrow=none;html=1;rounded=0;fillColor=#d5e8d4;strokeColor=#82b366;" parent="1" edge="1">
          <mxGeometry width="50" height="50" relative="1" as="geometry">
            <mxPoint x="534" y="470" as="sourcePoint" />
            <mxPoint x="570" y="470" as="targetPoint" />
          </mxGeometry>
        </mxCell>
        <mxCell id="KaHYt5kifrU_fSITi9a_-39" value="" style="endArrow=none;html=1;rounded=0;fillColor=#f8cecc;strokeColor=#b85450;" parent="1" edge="1">
          <mxGeometry width="50" height="50" relative="1" as="geometry">
            <mxPoint x="360" y="409.8" as="sourcePoint" />
            <mxPoint x="390" y="410" as="targetPoint" />
          </mxGeometry>
        </mxCell>
        <mxCell id="KaHYt5kifrU_fSITi9a_-40" value="" style="endArrow=none;html=1;rounded=0;fillColor=#f8cecc;strokeColor=#b85450;" parent="1" edge="1">
          <mxGeometry width="50" height="50" relative="1" as="geometry">
            <mxPoint x="250" y="540" as="sourcePoint" />
            <mxPoint x="219.99718731219951" y="540" as="targetPoint" />
          </mxGeometry>
        </mxCell>
        <mxCell id="KaHYt5kifrU_fSITi9a_-41" value="" style="endArrow=none;html=1;rounded=0;fillColor=#d5e8d4;strokeColor=#82b366;" parent="1" edge="1">
          <mxGeometry width="50" height="50" relative="1" as="geometry">
            <mxPoint x="443" y="530" as="sourcePoint" />
            <mxPoint x="383" y="530" as="targetPoint" />
          </mxGeometry>
        </mxCell>
        <mxCell id="KaHYt5kifrU_fSITi9a_-43" value="" style="endArrow=none;html=1;rounded=0;fillColor=#d5e8d4;strokeColor=#82b366;" parent="1" edge="1">
          <mxGeometry width="50" height="50" relative="1" as="geometry">
            <mxPoint x="450" y="530" as="sourcePoint" />
            <mxPoint x="520" y="530" as="targetPoint" />
          </mxGeometry>
        </mxCell>
        <mxCell id="KaHYt5kifrU_fSITi9a_-44" value="" style="endArrow=none;html=1;rounded=0;fillColor=#d5e8d4;strokeColor=#82b366;" parent="1" edge="1">
          <mxGeometry width="50" height="50" relative="1" as="geometry">
            <mxPoint x="330" y="530" as="sourcePoint" />
            <mxPoint x="370" y="530" as="targetPoint" />
          </mxGeometry>
        </mxCell>
        <mxCell id="KaHYt5kifrU_fSITi9a_-45" value="" style="endArrow=none;html=1;rounded=0;fillColor=#d5e8d4;strokeColor=#82b366;" parent="1" edge="1">
          <mxGeometry width="50" height="50" relative="1" as="geometry">
            <mxPoint x="259" y="530" as="sourcePoint" />
            <mxPoint x="309" y="530" as="targetPoint" />
          </mxGeometry>
        </mxCell>
        <mxCell id="KaHYt5kifrU_fSITi9a_-46" value="" style="endArrow=none;html=1;rounded=0;fillColor=#d5e8d4;strokeColor=#82b366;" parent="1" edge="1">
          <mxGeometry width="50" height="50" relative="1" as="geometry">
            <mxPoint x="190" y="790" as="sourcePoint" />
            <mxPoint x="250" y="790" as="targetPoint" />
          </mxGeometry>
        </mxCell>
        <mxCell id="KaHYt5kifrU_fSITi9a_-47" value="" style="endArrow=none;html=1;rounded=0;fillColor=#d5e8d4;strokeColor=#82b366;" parent="1" edge="1">
          <mxGeometry width="50" height="50" relative="1" as="geometry">
            <mxPoint x="260" y="790" as="sourcePoint" />
            <mxPoint x="300" y="790" as="targetPoint" />
          </mxGeometry>
        </mxCell>
        <mxCell id="KaHYt5kifrU_fSITi9a_-50" value="" style="endArrow=none;html=1;rounded=0;fillColor=#f8cecc;strokeColor=#b85450;" parent="1" edge="1">
          <mxGeometry width="50" height="50" relative="1" as="geometry">
            <mxPoint x="190" y="800" as="sourcePoint" />
            <mxPoint x="340" y="800" as="targetPoint" />
          </mxGeometry>
        </mxCell>
        <mxCell id="URsFByzpOWh1pcknukhG-2" value="" style="endArrow=none;html=1;rounded=0;fillColor=#f8cecc;strokeColor=#b85450;" parent="1" edge="1">
          <mxGeometry width="50" height="50" relative="1" as="geometry">
            <mxPoint x="399" y="-330" as="sourcePoint" />
            <mxPoint x="429" y="-329.87" as="targetPoint" />
            <Array as="points">
              <mxPoint x="409" y="-330" />
            </Array>
          </mxGeometry>
        </mxCell>
        <mxCell id="URsFByzpOWh1pcknukhG-3" value="" style="endArrow=none;html=1;rounded=0;fillColor=#f8cecc;strokeColor=#b85450;" parent="1" edge="1">
          <mxGeometry width="50" height="50" relative="1" as="geometry">
            <mxPoint x="413" y="-250" as="sourcePoint" />
            <mxPoint x="443" y="-249.87" as="targetPoint" />
            <Array as="points">
              <mxPoint x="423" y="-250" />
            </Array>
          </mxGeometry>
        </mxCell>
        <mxCell id="URsFByzpOWh1pcknukhG-6" value="" style="endArrow=none;html=1;rounded=0;fillColor=#d5e8d4;strokeColor=#82b366;" parent="1" edge="1">
          <mxGeometry width="50" height="50" relative="1" as="geometry">
            <mxPoint x="414" y="-260" as="sourcePoint" />
            <mxPoint x="444" y="-259.87" as="targetPoint" />
            <Array as="points">
              <mxPoint x="424" y="-260" />
            </Array>
          </mxGeometry>
        </mxCell>
        <mxCell id="URsFByzpOWh1pcknukhG-7" value="" style="curved=1;endArrow=classic;html=1;rounded=0;fillColor=#d5e8d4;strokeColor=#82b366;strokeWidth=1;" parent="1" edge="1">
          <mxGeometry width="50" height="50" relative="1" as="geometry">
            <mxPoint x="430" y="-260" as="sourcePoint" />
            <mxPoint x="410" y="-330" as="targetPoint" />
            <Array as="points">
              <mxPoint x="400" y="-280" />
            </Array>
          </mxGeometry>
        </mxCell>
        <mxCell id="URsFByzpOWh1pcknukhG-8" value="" style="endArrow=none;html=1;rounded=0;fillColor=#dae8fc;strokeColor=#6c8ebf;" parent="1" edge="1">
          <mxGeometry width="50" height="50" relative="1" as="geometry">
            <mxPoint x="460" y="-170" as="sourcePoint" />
            <mxPoint x="480" y="-170" as="targetPoint" />
            <Array as="points">
              <mxPoint x="470" y="-170" />
            </Array>
          </mxGeometry>
        </mxCell>
        <mxCell id="URsFByzpOWh1pcknukhG-9" value="" style="endArrow=none;html=1;rounded=0;fillColor=#f8cecc;strokeColor=#b85450;" parent="1" edge="1">
          <mxGeometry width="50" height="50" relative="1" as="geometry">
            <mxPoint x="420" y="-170" as="sourcePoint" />
            <mxPoint x="450" y="-169.87" as="targetPoint" />
            <Array as="points">
              <mxPoint x="430" y="-170" />
            </Array>
          </mxGeometry>
        </mxCell>
        <mxCell id="URsFByzpOWh1pcknukhG-10" value="Ve(publicidad,gratis)" style="text;html=1;align=center;verticalAlign=middle;resizable=0;points=[];autosize=1;strokeColor=none;fillColor=none;" parent="1" vertex="1">
          <mxGeometry x="349" y="-120" width="130" height="30" as="geometry" />
        </mxCell>
        <mxCell id="URsFByzpOWh1pcknukhG-11" value="" style="endArrow=none;html=1;rounded=0;fillColor=#f8cecc;strokeColor=#b85450;entryX=0.854;entryY=0.667;entryDx=0;entryDy=0;entryPerimeter=0;" parent="1" target="URsFByzpOWh1pcknukhG-10" edge="1">
          <mxGeometry width="50" height="50" relative="1" as="geometry">
            <mxPoint x="380" y="-100" as="sourcePoint" />
            <mxPoint x="410" y="-99.87" as="targetPoint" />
            <Array as="points">
              <mxPoint x="390" y="-100" />
            </Array>
          </mxGeometry>
        </mxCell>
        <mxCell id="URsFByzpOWh1pcknukhG-12" value="" style="endArrow=none;html=1;rounded=0;fillColor=#d5e8d4;strokeColor=#82b366;" parent="1" edge="1">
          <mxGeometry width="50" height="50" relative="1" as="geometry">
            <mxPoint x="383" y="-110" as="sourcePoint" />
            <mxPoint x="430" y="-110" as="targetPoint" />
            <Array as="points">
              <mxPoint x="393" y="-110" />
            </Array>
          </mxGeometry>
        </mxCell>
        <mxCell id="URsFByzpOWh1pcknukhG-13" value="" style="curved=1;endArrow=classic;html=1;rounded=0;entryX=0.933;entryY=0.667;entryDx=0;entryDy=0;entryPerimeter=0;fillColor=#d5e8d4;strokeColor=#82b366;" parent="1" target="KaHYt5kifrU_fSITi9a_-13" edge="1">
          <mxGeometry width="50" height="50" relative="1" as="geometry">
            <mxPoint x="410" y="-110" as="sourcePoint" />
            <mxPoint x="450" y="-200" as="targetPoint" />
            <Array as="points">
              <mxPoint x="400" y="-110" />
              <mxPoint x="400" y="-130" />
              <mxPoint x="440" y="-150" />
            </Array>
          </mxGeometry>
        </mxCell>
        <mxCell id="URsFByzpOWh1pcknukhG-14" value="" style="endArrow=none;html=1;rounded=0;fillColor=#f8cecc;strokeColor=#b85450;" parent="1" edge="1">
          <mxGeometry width="50" height="50" relative="1" as="geometry">
            <mxPoint x="360" y="-40" as="sourcePoint" />
            <mxPoint x="390" y="-39.870000000000005" as="targetPoint" />
            <Array as="points">
              <mxPoint x="370" y="-40" />
            </Array>
          </mxGeometry>
        </mxCell>
        <mxCell id="URsFByzpOWh1pcknukhG-15" value="" style="endArrow=none;html=1;rounded=0;fillColor=#d5e8d4;strokeColor=#82b366;" parent="1" edge="1">
          <mxGeometry width="50" height="50" relative="1" as="geometry">
            <mxPoint x="360" y="-50" as="sourcePoint" />
            <mxPoint x="390" y="-49.870000000000005" as="targetPoint" />
            <Array as="points">
              <mxPoint x="370" y="-50" />
            </Array>
          </mxGeometry>
        </mxCell>
        <mxCell id="URsFByzpOWh1pcknukhG-16" value="" style="curved=1;endArrow=classic;html=1;rounded=0;fillColor=#d5e8d4;strokeColor=#82b366;" parent="1" edge="1">
          <mxGeometry width="50" height="50" relative="1" as="geometry">
            <mxPoint x="380" y="-50" as="sourcePoint" />
            <mxPoint x="400" y="-330" as="targetPoint" />
            <Array as="points">
              <mxPoint x="270" y="-90" />
              <mxPoint x="210" y="-140" />
            </Array>
          </mxGeometry>
        </mxCell>
        <mxCell id="URsFByzpOWh1pcknukhG-17" value="Tarjetas(pago,numero,fechaVencimiento,cvv)" style="text;html=1;align=center;verticalAlign=middle;resizable=0;points=[];autosize=1;strokeColor=none;fillColor=none;" parent="1" vertex="1">
          <mxGeometry x="283" y="10" width="260" height="30" as="geometry" />
        </mxCell>
        <mxCell id="URsFByzpOWh1pcknukhG-18" value="" style="endArrow=none;html=1;rounded=0;fillColor=#dae8fc;strokeColor=#6c8ebf;entryX=0.488;entryY=0.667;entryDx=0;entryDy=0;entryPerimeter=0;" parent="1" target="URsFByzpOWh1pcknukhG-17" edge="1">
          <mxGeometry width="50" height="50" relative="1" as="geometry">
            <mxPoint x="370" y="30" as="sourcePoint" />
            <mxPoint x="400" y="30.129999999999995" as="targetPoint" />
            <Array as="points">
              <mxPoint x="380" y="30" />
            </Array>
          </mxGeometry>
        </mxCell>
        <mxCell id="URsFByzpOWh1pcknukhG-19" value="" style="endArrow=none;html=1;rounded=0;fillColor=#f8cecc;strokeColor=#b85450;" parent="1" edge="1">
          <mxGeometry width="50" height="50" relative="1" as="geometry">
            <mxPoint x="340" y="30" as="sourcePoint" />
            <mxPoint x="360" y="30" as="targetPoint" />
            <Array as="points">
              <mxPoint x="350" y="30" />
            </Array>
          </mxGeometry>
        </mxCell>
        <mxCell id="URsFByzpOWh1pcknukhG-20" value="" style="endArrow=none;html=1;rounded=0;fillColor=#d5e8d4;strokeColor=#82b366;" parent="1" edge="1">
          <mxGeometry width="50" height="50" relative="1" as="geometry">
            <mxPoint x="340" y="20" as="sourcePoint" />
            <mxPoint x="360" y="20" as="targetPoint" />
            <Array as="points">
              <mxPoint x="350" y="20" />
            </Array>
          </mxGeometry>
        </mxCell>
        <mxCell id="URsFByzpOWh1pcknukhG-21" value="" style="curved=1;endArrow=classic;html=1;rounded=0;fillColor=#d5e8d4;strokeColor=#82b366;entryX=0.035;entryY=0.782;entryDx=0;entryDy=0;entryPerimeter=0;" parent="1" target="KaHYt5kifrU_fSITi9a_-11" edge="1">
          <mxGeometry width="50" height="50" relative="1" as="geometry">
            <mxPoint x="354" y="20" as="sourcePoint" />
            <mxPoint x="384" y="-40" as="targetPoint" />
            <Array as="points">
              <mxPoint x="364" y="10" />
            </Array>
          </mxGeometry>
        </mxCell>
        <mxCell id="URsFByzpOWh1pcknukhG-22" value="EsSuJugadorFavorito(pago,jugadorNit,jugadorTid)" style="text;html=1;align=center;verticalAlign=middle;resizable=0;points=[];autosize=1;strokeColor=none;fillColor=none;" parent="1" vertex="1">
          <mxGeometry x="269" y="80" width="290" height="30" as="geometry" />
        </mxCell>
        <mxCell id="URsFByzpOWh1pcknukhG-23" value="" style="curved=1;endArrow=classic;html=1;rounded=0;fillColor=#d5e8d4;strokeColor=#82b366;exitX=0.486;exitY=0.333;exitDx=0;exitDy=0;exitPerimeter=0;" parent="1" source="URsFByzpOWh1pcknukhG-22" edge="1">
          <mxGeometry width="50" height="50" relative="1" as="geometry">
            <mxPoint x="390" y="80" as="sourcePoint" />
            <mxPoint x="380" y="-40" as="targetPoint" />
            <Array as="points">
              <mxPoint x="330" y="70" />
              <mxPoint x="240" y="80" />
              <mxPoint x="160" y="30" />
              <mxPoint x="360" y="-20" />
            </Array>
          </mxGeometry>
        </mxCell>
        <mxCell id="URsFByzpOWh1pcknukhG-27" value="" style="endArrow=none;html=1;rounded=0;fillColor=#d5e8d4;strokeColor=#82b366;entryX=0.969;entryY=0.333;entryDx=0;entryDy=0;entryPerimeter=0;" parent="1" edge="1">
          <mxGeometry width="50" height="50" relative="1" as="geometry">
            <mxPoint x="492.99" y="90" as="sourcePoint" />
            <mxPoint x="543" y="89.99000000000001" as="targetPoint" />
            <Array as="points">
              <mxPoint x="492.99" y="90" />
            </Array>
          </mxGeometry>
        </mxCell>
        <mxCell id="URsFByzpOWh1pcknukhG-28" value="" style="endArrow=none;html=1;rounded=0;fillColor=#d5e8d4;strokeColor=#82b366;entryX=0.969;entryY=0.333;entryDx=0;entryDy=0;entryPerimeter=0;" parent="1" edge="1">
          <mxGeometry width="50" height="50" relative="1" as="geometry">
            <mxPoint x="430" y="90.01" as="sourcePoint" />
            <mxPoint x="480.01" y="90.00000000000001" as="targetPoint" />
            <Array as="points">
              <mxPoint x="430" y="90.01" />
            </Array>
          </mxGeometry>
        </mxCell>
        <mxCell id="URsFByzpOWh1pcknukhG-29" value="EsSuEquipoFavorito(pago,equipo)" style="text;html=1;align=center;verticalAlign=middle;resizable=0;points=[];autosize=1;strokeColor=none;fillColor=none;" parent="1" vertex="1">
          <mxGeometry x="309" y="150" width="210" height="30" as="geometry" />
        </mxCell>
        <mxCell id="URsFByzpOWh1pcknukhG-31" value="" style="curved=1;endArrow=classic;html=1;rounded=0;exitX=0.671;exitY=0.333;exitDx=0;exitDy=0;exitPerimeter=0;fillColor=#d5e8d4;strokeColor=#82b366;" parent="1" source="URsFByzpOWh1pcknukhG-29" edge="1">
          <mxGeometry width="50" height="50" relative="1" as="geometry">
            <mxPoint x="310" y="20" as="sourcePoint" />
            <mxPoint x="370" y="-40" as="targetPoint" />
            <Array as="points">
              <mxPoint x="370" y="130" />
              <mxPoint x="270" y="140" />
              <mxPoint x="80" y="60" />
              <mxPoint x="310" y="-30" />
              <mxPoint x="350" y="-20" />
            </Array>
          </mxGeometry>
        </mxCell>
        <mxCell id="URsFByzpOWh1pcknukhG-32" value="" style="curved=1;endArrow=classic;html=1;rounded=0;fillColor=#d5e8d4;strokeColor=#82b366;" parent="1" edge="1">
          <mxGeometry width="50" height="50" relative="1" as="geometry">
            <mxPoint x="450" y="90" as="sourcePoint" />
            <mxPoint x="370" y="230" as="targetPoint" />
            <Array as="points">
              <mxPoint x="500" y="30" />
              <mxPoint x="650" y="70" />
              <mxPoint x="680" y="310" />
              <mxPoint x="360" y="260" />
            </Array>
          </mxGeometry>
        </mxCell>
        <mxCell id="URsFByzpOWh1pcknukhG-33" value="" style="curved=1;endArrow=classic;html=1;rounded=0;fillColor=#d5e8d4;strokeColor=#82b366;" parent="1" edge="1">
          <mxGeometry width="50" height="50" relative="1" as="geometry">
            <mxPoint x="509" y="90" as="sourcePoint" />
            <mxPoint x="380" y="230" as="targetPoint" />
            <Array as="points">
              <mxPoint x="570" y="50" />
              <mxPoint x="660" y="190" />
              <mxPoint x="580" y="290" />
              <mxPoint x="380" y="250" />
            </Array>
          </mxGeometry>
        </mxCell>
        <mxCell id="URsFByzpOWh1pcknukhG-34" value="Pertenece(jugadorNit,jugadorTid,equipo,fechaInicio,fechaFin)" style="text;html=1;align=center;verticalAlign=middle;resizable=0;points=[];autosize=1;strokeColor=none;fillColor=none;" parent="1" vertex="1">
          <mxGeometry x="290" y="330" width="350" height="30" as="geometry" />
        </mxCell>
        <mxCell id="URsFByzpOWh1pcknukhG-37" value="" style="endArrow=none;html=1;rounded=0;fillColor=#d5e8d4;strokeColor=#82b366;" parent="1" edge="1">
          <mxGeometry width="50" height="50" relative="1" as="geometry">
            <mxPoint x="490" y="340" as="sourcePoint" />
            <mxPoint x="510" y="340" as="targetPoint" />
          </mxGeometry>
        </mxCell>
        <mxCell id="URsFByzpOWh1pcknukhG-38" value="" style="curved=1;endArrow=classic;html=1;rounded=0;fillColor=#d5e8d4;strokeColor=#82b366;" parent="1" edge="1">
          <mxGeometry width="50" height="50" relative="1" as="geometry">
            <mxPoint x="390" y="340" as="sourcePoint" />
            <mxPoint x="360" y="230" as="targetPoint" />
            <Array as="points">
              <mxPoint x="390" y="340" />
              <mxPoint x="360" y="330" />
              <mxPoint x="330" y="280" />
            </Array>
          </mxGeometry>
        </mxCell>
        <mxCell id="URsFByzpOWh1pcknukhG-39" value="" style="curved=1;endArrow=classic;html=1;rounded=0;exitX=0.608;exitY=0.333;exitDx=0;exitDy=0;exitPerimeter=0;fillColor=#d5e8d4;strokeColor=#82b366;" parent="1" source="URsFByzpOWh1pcknukhG-34" edge="1">
          <mxGeometry width="50" height="50" relative="1" as="geometry">
            <mxPoint x="370" y="300" as="sourcePoint" />
            <mxPoint x="380" y="230" as="targetPoint" />
            <Array as="points">
              <mxPoint x="350" y="300" />
              <mxPoint x="370" y="250" />
            </Array>
          </mxGeometry>
        </mxCell>
        <mxCell id="URsFByzpOWh1pcknukhG-40" value="" style="curved=1;endArrow=classic;html=1;rounded=0;fillColor=#d5e8d4;strokeColor=#82b366;" parent="1" edge="1">
          <mxGeometry width="50" height="50" relative="1" as="geometry">
            <mxPoint x="500.34189077524036" y="340" as="sourcePoint" />
            <mxPoint x="370" y="410" as="targetPoint" />
            <Array as="points">
              <mxPoint x="680" y="310" />
              <mxPoint x="610" y="390" />
              <mxPoint x="260" y="390" />
              <mxPoint x="330" y="430" />
              <mxPoint x="370" y="440" />
              <mxPoint x="370" y="420" />
            </Array>
          </mxGeometry>
        </mxCell>
        <mxCell id="URsFByzpOWh1pcknukhG-41" value="" style="curved=1;endArrow=classic;html=1;rounded=0;fillColor=#d5e8d4;strokeColor=#82b366;" parent="1" edge="1">
          <mxGeometry width="50" height="50" relative="1" as="geometry">
            <mxPoint x="550" y="470" as="sourcePoint" />
            <mxPoint x="370" y="410" as="targetPoint" />
            <Array as="points">
              <mxPoint x="500" y="440" />
              <mxPoint x="430" y="450" />
              <mxPoint x="370" y="430" />
            </Array>
          </mxGeometry>
        </mxCell>
        <mxCell id="URsFByzpOWh1pcknukhG-43" value="" style="curved=1;endArrow=classic;html=1;rounded=0;fillColor=#d5e8d4;strokeColor=#82b366;" parent="1" edge="1">
          <mxGeometry width="50" height="50" relative="1" as="geometry">
            <mxPoint x="460" y="530" as="sourcePoint" />
            <mxPoint x="370" y="410" as="targetPoint" />
            <Array as="points">
              <mxPoint x="490" y="500" />
              <mxPoint x="660" y="480" />
              <mxPoint x="600" y="430" />
              <mxPoint x="540" y="430" />
              <mxPoint x="410" y="440" />
            </Array>
          </mxGeometry>
        </mxCell>
        <mxCell id="URsFByzpOWh1pcknukhG-44" value="" style="curved=1;endArrow=classic;html=1;rounded=0;entryX=-0.383;entryY=0.5;entryDx=0;entryDy=0;entryPerimeter=0;fillColor=#d5e8d4;strokeColor=#82b366;" parent="1" target="KaHYt5kifrU_fSITi9a_-1" edge="1">
          <mxGeometry width="50" height="50" relative="1" as="geometry">
            <mxPoint x="395" y="530" as="sourcePoint" />
            <mxPoint x="370" y="420" as="targetPoint" />
            <Array as="points">
              <mxPoint x="380" y="500" />
              <mxPoint x="180" y="490" />
              <mxPoint x="230" y="440" />
              <mxPoint x="340" y="440" />
            </Array>
          </mxGeometry>
        </mxCell>
        <mxCell id="URsFByzpOWh1pcknukhG-45" value="" style="endArrow=none;html=1;rounded=0;entryX=2.117;entryY=0.333;entryDx=0;entryDy=0;entryPerimeter=0;fillColor=#d5e8d4;strokeColor=#82b366;" parent="1" edge="1">
          <mxGeometry width="50" height="50" relative="1" as="geometry">
            <mxPoint x="520" y="620" as="sourcePoint" />
            <mxPoint x="490" y="619.99" as="targetPoint" />
          </mxGeometry>
        </mxCell>
        <mxCell id="URsFByzpOWh1pcknukhG-46" value="" style="endArrow=none;html=1;rounded=0;fillColor=#f8cecc;strokeColor=#b85450;" parent="1" edge="1">
          <mxGeometry width="50" height="50" relative="1" as="geometry">
            <mxPoint x="330" y="630" as="sourcePoint" />
            <mxPoint x="430" y="630" as="targetPoint" />
          </mxGeometry>
        </mxCell>
        <mxCell id="URsFByzpOWh1pcknukhG-47" value="" style="curved=1;endArrow=classic;html=1;rounded=0;fillColor=#d5e8d4;strokeColor=#82b366;" parent="1" edge="1">
          <mxGeometry width="50" height="50" relative="1" as="geometry">
            <mxPoint x="500" y="620" as="sourcePoint" />
            <mxPoint x="360" y="410" as="targetPoint" />
            <Array as="points">
              <mxPoint x="500" y="600" />
              <mxPoint x="640" y="580" />
              <mxPoint x="790" y="510" />
              <mxPoint x="670" y="450" />
              <mxPoint x="360" y="450" />
            </Array>
          </mxGeometry>
        </mxCell>
        <mxCell id="URsFByzpOWh1pcknukhG-48" value="" style="curved=1;endArrow=classic;html=1;rounded=0;fillColor=#d5e8d4;strokeColor=#82b366;entryX=0;entryY=0.75;entryDx=0;entryDy=0;" parent="1" target="KaHYt5kifrU_fSITi9a_-3" edge="1">
          <mxGeometry width="50" height="50" relative="1" as="geometry">
            <mxPoint x="340" y="530" as="sourcePoint" />
            <mxPoint x="410" y="630" as="targetPoint" />
            <Array as="points">
              <mxPoint x="340" y="500" />
              <mxPoint x="40" y="500" />
              <mxPoint x="60" y="700" />
              <mxPoint x="410" y="690" />
            </Array>
          </mxGeometry>
        </mxCell>
        <mxCell id="URsFByzpOWh1pcknukhG-49" value="" style="curved=1;endArrow=classic;html=1;rounded=0;fillColor=#d5e8d4;strokeColor=#82b366;" parent="1" edge="1">
          <mxGeometry width="50" height="50" relative="1" as="geometry">
            <mxPoint x="290" y="530" as="sourcePoint" />
            <mxPoint x="350" y="630" as="targetPoint" />
            <Array as="points">
              <mxPoint x="280" y="510" />
              <mxPoint x="170" y="510" />
              <mxPoint x="100" y="570" />
              <mxPoint x="330" y="690" />
            </Array>
          </mxGeometry>
        </mxCell>
        <mxCell id="URsFByzpOWh1pcknukhG-50" value="" style="endArrow=none;html=1;rounded=0;fillColor=#d5e8d4;strokeColor=#82b366;" parent="1" edge="1">
          <mxGeometry width="50" height="50" relative="1" as="geometry">
            <mxPoint x="309" y="790" as="sourcePoint" />
            <mxPoint x="339" y="790" as="targetPoint" />
          </mxGeometry>
        </mxCell>
        <mxCell id="URsFByzpOWh1pcknukhG-51" value="" style="curved=1;endArrow=classic;html=1;rounded=0;fillColor=#d5e8d4;strokeColor=#82b366;" parent="1" edge="1">
          <mxGeometry width="50" height="50" relative="1" as="geometry">
            <mxPoint x="330" y="790" as="sourcePoint" />
            <mxPoint x="370" y="410" as="targetPoint" />
            <Array as="points">
              <mxPoint x="360" y="700" />
              <mxPoint x="520" y="680" />
              <mxPoint x="670" y="620" />
              <mxPoint x="860" y="520" />
              <mxPoint x="700" y="420" />
              <mxPoint x="390" y="440" />
            </Array>
          </mxGeometry>
        </mxCell>
        <mxCell id="URsFByzpOWh1pcknukhG-52" value="" style="curved=1;endArrow=classic;html=1;rounded=0;fillColor=#d5e8d4;strokeColor=#82b366;" parent="1" edge="1">
          <mxGeometry width="50" height="50" relative="1" as="geometry">
            <mxPoint x="280" y="790" as="sourcePoint" />
            <mxPoint x="400" y="630" as="targetPoint" />
            <Array as="points">
              <mxPoint x="370" y="700" />
              <mxPoint x="390" y="690" />
            </Array>
          </mxGeometry>
        </mxCell>
        <mxCell id="URsFByzpOWh1pcknukhG-53" value="" style="curved=1;endArrow=classic;html=1;rounded=0;fillColor=#d5e8d4;strokeColor=#82b366;" parent="1" edge="1">
          <mxGeometry width="50" height="50" relative="1" as="geometry">
            <mxPoint x="230" y="790" as="sourcePoint" />
            <mxPoint x="340" y="630" as="targetPoint" />
            <Array as="points">
              <mxPoint x="290" y="750" />
              <mxPoint x="240" y="700" />
              <mxPoint x="330" y="670" />
            </Array>
          </mxGeometry>
        </mxCell>
        <mxCell id="URsFByzpOWh1pcknukhG-54" value="" style="endArrow=none;html=1;rounded=0;fillColor=#f8cecc;strokeColor=#b85450;" parent="1" edge="1">
          <mxGeometry width="50" height="50" relative="1" as="geometry">
            <mxPoint x="130" y="950" as="sourcePoint" />
            <mxPoint x="190" y="950" as="targetPoint" />
          </mxGeometry>
        </mxCell>
        <mxCell id="URsFByzpOWh1pcknukhG-55" value="" style="endArrow=none;html=1;rounded=0;fillColor=#d5e8d4;strokeColor=#82b366;" parent="1" edge="1">
          <mxGeometry width="50" height="50" relative="1" as="geometry">
            <mxPoint x="210" y="940" as="sourcePoint" />
            <mxPoint x="250" y="940" as="targetPoint" />
          </mxGeometry>
        </mxCell>
        <mxCell id="URsFByzpOWh1pcknukhG-56" value="" style="endArrow=none;html=1;rounded=0;fillColor=#d5e8d4;strokeColor=#82b366;" parent="1" edge="1">
          <mxGeometry width="50" height="50" relative="1" as="geometry">
            <mxPoint x="269" y="940" as="sourcePoint" />
            <mxPoint x="309" y="940" as="targetPoint" />
          </mxGeometry>
        </mxCell>
        <mxCell id="URsFByzpOWh1pcknukhG-57" value="" style="endArrow=none;html=1;rounded=0;fillColor=#d5e8d4;strokeColor=#82b366;" parent="1" edge="1">
          <mxGeometry width="50" height="50" relative="1" as="geometry">
            <mxPoint x="130" y="940" as="sourcePoint" />
            <mxPoint x="200" y="940" as="targetPoint" />
          </mxGeometry>
        </mxCell>
        <mxCell id="URsFByzpOWh1pcknukhG-58" value="" style="endArrow=none;html=1;rounded=0;fillColor=#d5e8d4;strokeColor=#82b366;" parent="1" edge="1">
          <mxGeometry width="50" height="50" relative="1" as="geometry">
            <mxPoint x="330" y="940" as="sourcePoint" />
            <mxPoint x="350" y="940" as="targetPoint" />
          </mxGeometry>
        </mxCell>
        <mxCell id="URsFByzpOWh1pcknukhG-59" value="" style="curved=1;endArrow=classic;html=1;rounded=0;fillColor=#d5e8d4;strokeColor=#82b366;" parent="1" edge="1">
          <mxGeometry width="50" height="50" relative="1" as="geometry">
            <mxPoint x="340" y="940" as="sourcePoint" />
            <mxPoint x="380" y="410" as="targetPoint" />
            <Array as="points">
              <mxPoint x="350" y="920" />
              <mxPoint x="810" y="840" />
              <mxPoint x="920" y="400" />
              <mxPoint x="380" y="450" />
            </Array>
          </mxGeometry>
        </mxCell>
        <mxCell id="URsFByzpOWh1pcknukhG-61" value="" style="curved=1;endArrow=classic;html=1;rounded=0;fillColor=#d5e8d4;strokeColor=#82b366;" parent="1" edge="1">
          <mxGeometry width="50" height="50" relative="1" as="geometry">
            <mxPoint x="290" y="940" as="sourcePoint" />
            <mxPoint x="380" y="230" as="targetPoint" />
            <Array as="points">
              <mxPoint x="290" y="870" />
              <mxPoint x="-130" y="770" />
              <mxPoint x="60" y="450" />
              <mxPoint x="370" y="270" />
            </Array>
          </mxGeometry>
        </mxCell>
        <mxCell id="URsFByzpOWh1pcknukhG-62" value="" style="curved=1;endArrow=classic;html=1;rounded=0;fillColor=#d5e8d4;strokeColor=#82b366;" parent="1" edge="1">
          <mxGeometry width="50" height="50" relative="1" as="geometry">
            <mxPoint x="230" y="940" as="sourcePoint" />
            <mxPoint x="360" y="230" as="targetPoint" />
            <Array as="points">
              <mxPoint x="220" y="900" />
              <mxPoint x="-40" y="830" />
              <mxPoint x="-200" y="660" />
              <mxPoint x="50" y="380" />
              <mxPoint x="350" y="270" />
            </Array>
          </mxGeometry>
        </mxCell>
        <mxCell id="URsFByzpOWh1pcknukhG-64" value="" style="curved=1;endArrow=classic;html=1;rounded=0;fillColor=#d5e8d4;strokeColor=#82b366;" parent="1" edge="1">
          <mxGeometry width="50" height="50" relative="1" as="geometry">
            <mxPoint x="150" y="940" as="sourcePoint" />
            <mxPoint x="240" y="540" as="targetPoint" />
            <Array as="points">
              <mxPoint x="-100" y="830" />
              <mxPoint x="190" y="730" />
              <mxPoint x="150" y="610" />
              <mxPoint x="230" y="590" />
            </Array>
          </mxGeometry>
        </mxCell>
        <mxCell id="wlmeOM_iJdJ05euEosO1-1" value="" style="endArrow=none;html=1;rounded=0;fillColor=#d5e8d4;strokeColor=#82b366;" parent="1" edge="1">
          <mxGeometry width="50" height="50" relative="1" as="geometry">
            <mxPoint x="443" y="-110" as="sourcePoint" />
            <mxPoint x="460" y="-110" as="targetPoint" />
            <Array as="points">
              <mxPoint x="453" y="-110" />
            </Array>
          </mxGeometry>
        </mxCell>
        <mxCell id="wlmeOM_iJdJ05euEosO1-2" value="" style="curved=1;endArrow=classic;html=1;rounded=0;fillColor=#d5e8d4;strokeColor=#82b366;" parent="1" edge="1">
          <mxGeometry width="50" height="50" relative="1" as="geometry">
            <mxPoint x="450" y="-110" as="sourcePoint" />
            <mxPoint x="430" y="-250" as="targetPoint" />
            <Array as="points">
              <mxPoint x="500" y="-110" />
              <mxPoint x="560" y="-170" />
            </Array>
          </mxGeometry>
        </mxCell>
        <mxCell id="wlmeOM_iJdJ05euEosO1-3" value="" style="curved=1;endArrow=classic;html=1;rounded=0;fillColor=#d5e8d4;strokeColor=#82b366;exitX=0.814;exitY=0.333;exitDx=0;exitDy=0;exitPerimeter=0;" parent="1" source="URsFByzpOWh1pcknukhG-29" edge="1">
          <mxGeometry width="50" height="50" relative="1" as="geometry">
            <mxPoint x="850" y="160" as="sourcePoint" />
            <mxPoint x="380" y="420" as="targetPoint" />
            <Array as="points">
              <mxPoint x="550" y="130" />
              <mxPoint x="740" y="340" />
              <mxPoint x="400" y="460" />
            </Array>
          </mxGeometry>
        </mxCell>
        <mxCell id="f7Py3BKbKDBOl93xG2ml-3" value="" style="endArrow=none;html=1;rounded=0;fillColor=#f8cecc;strokeColor=#b85450;" edge="1" parent="1">
          <mxGeometry width="50" height="50" relative="1" as="geometry">
            <mxPoint x="323" y="950" as="sourcePoint" />
            <mxPoint x="360" y="950" as="targetPoint" />
          </mxGeometry>
        </mxCell>
      </root>
    </mxGraphModel>
  </diagram>
</mxfile>
